<svg width="32" height="32" viewBox="0 0 48 48" fill="none" xmlns="http://www.w3.org/2000/svg"><path fill-rule="evenodd" clip-rule="evenodd" d="M24 48c13.255 0 24-10.745 24-24S37.255 0 24 0 0 10.745 0 24s10.745 24 24 24z" fill="rgba(255, 255, 255, 0.12)"/><path d="M29.341 13.005L26.52 13c-3.17 0-5.22 2.106-5.22 5.365v2.474h-2.838c-.245 0-.443.2-.443.445v3.584c0 .246.198.445.443.445H21.3v9.044c0 .245.199.444.444.444h3.702c.245 0 .444-.199.444-.444v-9.044h3.318a.444.444 0 00.444-.445v-3.584a.446.446 0 00-.443-.445h-3.32v-2.097c0-1.008.24-1.52 1.551-1.52h1.902c.245 0 .443-.2.443-.445V13.45a.444.444 0 00-.443-.444z" fill="rgba(255, 255, 255, 0.82)"/></svg>