<svg width="34" height="34" fill="none" xmlns="http://www.w3.org/2000/svg"><path fill-rule="evenodd" clip-rule="evenodd" d="M17 34c9.389 0 17-7.611 17-17S26.389 0 17 0 0 7.611 0 17s7.611 17 17 17z" fill="#fff"/><path d="M20.782 9.212l-1.999-.003c-2.245 0-3.697 1.492-3.697 3.8v1.753h-2.01a.315.315 0 00-.314.315v2.539c0 .174.14.314.314.314h2.01v6.407c0 .174.14.314.314.314h2.623a.315.315 0 00.314-.314V17.93h2.35c.174 0 .315-.14.315-.314v-2.54a.316.316 0 00-.314-.314h-2.35v-1.486c0-.714.17-1.076 1.098-1.076h1.346a.315.315 0 00.314-.316V9.527a.315.315 0 00-.314-.315z" fill="#12122F"/></svg>