<svg width="34" height="34" fill="none" xmlns="http://www.w3.org/2000/svg"><path fill-rule="evenodd" clip-rule="evenodd" d="M17 34c9.389 0 17-7.611 17-17S26.389 0 17 0 0 7.611 0 17s7.611 17 17 17z" fill="#fff"/><path fill-rule="evenodd" clip-rule="evenodd" d="M13.813 8.5h6.374a5.313 5.313 0 015.313 5.313v6.374a5.313 5.313 0 01-5.313 5.313h-6.375A5.313 5.313 0 018.5 20.187v-6.375A5.313 5.313 0 0113.813 8.5zm6.374 15.406a3.723 3.723 0 003.72-3.718v-6.375a3.723 3.723 0 00-3.72-3.72h-6.375a3.723 3.723 0 00-3.718 3.72v6.374a3.723 3.723 0 003.719 3.72h6.374z" fill="#12122F"/><path fill-rule="evenodd" clip-rule="evenodd" d="M12.75 17a4.25 4.25 0 118.5 0 4.25 4.25 0 01-8.5 0zm1.594 0A2.66 2.66 0 0017 19.656 2.66 2.66 0 0019.656 17 2.66 2.66 0 0017 14.344 2.66 2.66 0 0014.344 17z" fill="#12122F"/><path d="M21.605 13.459a1.063 1.063 0 100-2.125 1.063 1.063 0 000 2.125z" fill="#12122F"/></svg>