<svg width="48" height="48" fill="none" xmlns="http://www.w3.org/2000/svg"><path fill-rule="evenodd" clip-rule="evenodd" d="M24 48c13.255 0 24-10.745 24-24S37.255 0 24 0 0 10.745 0 24s10.745 24 24 24z" fill="#E5E5E5"/><path fill-rule="evenodd" clip-rule="evenodd" d="M15.79 13C14.104 13 13 14.108 13 15.564c0 1.426 1.072 2.566 2.726 2.566h.031c1.72 0 2.79-1.14 2.79-2.566C18.514 14.108 17.477 13 15.79 13zM36 26.487V35h-4.93v-7.942c0-1.995-.713-3.357-2.498-3.357-1.362 0-2.172.917-2.53 1.805-.129.317-.162.758-.162 1.203V35h-4.931s.066-13.451 0-14.844h4.931v2.104l-.016.023a.258.258 0 00-.017.026h.033v-.049c.655-1.01 1.824-2.452 4.444-2.452 3.244 0 5.676 2.122 5.676 6.68zM18.222 35h-4.929V20.155h4.93V35z" fill="#344154"/></svg>