<svg width="32" height="32" viewBox="0 0 48 48" fill="none" xmlns="http://www.w3.org/2000/svg"><path fill-rule="evenodd" clip-rule="evenodd" d="M24 48c13.255 0 24-10.745 24-24S37.255 0 24 0 0 10.745 0 24s10.745 24 24 24z" fill="rgba(255, 255, 255, 0.12)"/><path d="M35 17.13c-.81.362-1.68.607-2.593.716a4.551 4.551 0 001.985-2.514 8.998 8.998 0 01-2.866 1.102A4.495 4.495 0 0028.231 15c-2.492 0-4.514 2.035-4.514 4.544 0 .356.04.703.118 1.036-3.751-.19-7.077-1.999-9.304-4.749a4.548 4.548 0 00-.611 2.285c0 1.576.797 2.968 2.008 3.782a4.458 4.458 0 01-2.044-.569v.058a4.54 4.54 0 003.62 4.455 4.472 4.472 0 01-2.038.079 4.522 4.522 0 004.216 3.156A9.017 9.017 0 0113 30.958 12.705 12.705 0 0019.918 33c8.302 0 12.843-6.924 12.843-12.93 0-.197-.005-.393-.014-.587A9.187 9.187 0 0035 17.13z" fill="rgba(255, 255, 255, 0.82"/></svg>