<?xml version="1.0" encoding="utf-8"?>
<!-- Generator: Adobe Illustrator 23.0.3, SVG Export Plug-In . SVG Version: 6.00 Build 0)  -->
<svg version="1.1" id="Слой_1" xmlns="http://www.w3.org/2000/svg" xmlns:xlink="http://www.w3.org/1999/xlink" x="0px" y="0px"
	 viewBox="0 0 744 523" style="enable-background:new 0 0 744 523;" xml:space="preserve">
<style type="text/css">
	.st0{fill:#131330;}
	.st1{fill:url(#SVGID_1_);}
	.st2{fill:url(#SVGID_2_);}
	.st3{fill:#FFFFFF;}
	.st4{fill:url(#SVGID_3_);}
	.st5{fill:url(#SVGID_4_);}
	.st6{fill:url(#SVGID_5_);}
	.st7{fill:#666683;}
	.st8{fill:url(#SVGID_6_);}
	.st9{fill:none;stroke:#212121;stroke-width:2;stroke-opacity:0.33;}
	.st10{fill:#FED300;}
	.st11{fill:url(#SVGID_7_);}
	.st12{fill:none;}
	.st13{fill:url(#SVGID_8_);fill-opacity:0.7;}
	.st14{fill:#C4C4C4;fill-opacity:0.9;filter:url(#Adobe_OpacityMaskFilter);}
	.st15{mask:url(#mask0_1_);}
	.st16{fill:none;stroke:url(#SVGID_9_);stroke-width:4;stroke-opacity:0.9;}
	.st17{fill:none;stroke:url(#SVGID_10_);stroke-width:4;stroke-opacity:0.9;}
</style>
<g>
	<path class="st0" d="M66,30h612c19.9,0,36,16.1,36,36v391c0,19.9-16.1,36-36,36H66c-19.9,0-36-16.1-36-36V66C30,46.1,46.1,30,66,30
		z"/>
</g>
<linearGradient id="SVGID_1_" gradientUnits="userSpaceOnUse" x1="156.8022" y1="290.9964" x2="593.7952" y2="366.7563" gradientTransform="matrix(1 0 0 -1 0 523.2756)">
	<stop  offset="0" style="stop-color:#343451"/>
	<stop  offset="0.5451" style="stop-color:#343451;stop-opacity:0"/>
</linearGradient>
<circle class="st1" cx="305.5" cy="206.5" r="162.5"/>
<linearGradient id="SVGID_2_" gradientUnits="userSpaceOnUse" x1="573.5858" y1="359.3752" x2="974.5868" y2="449.0224" gradientTransform="matrix(1 0 0 -1 0 523.2756)">
	<stop  offset="0" style="stop-color:#343451"/>
	<stop  offset="0.5451" style="stop-color:#343451;stop-opacity:0"/>
</linearGradient>
<path class="st2" d="M678,30c19.9,0,36,16.1,36,36c0,59.6,0,131.5,0,203c-83.9,0-152-64.6-152-140.8c0-65.1,0-57.2,0-98.2
	C627.6,30,642.5,30,678,30z"/>
<path class="st3" d="M714,457c0,19.9-16.1,36-36,36H66c-19.9,0-36-16.1-36-36V270.1c0,0,64.2-29.5,155.3-32.1
	c91.1-2.5,320.2,48.6,392,59.1s136.7,6,136.7,6V457z"/>
<linearGradient id="SVGID_3_" gradientUnits="userSpaceOnUse" x1="-105.2154" y1="523.27" x2="-13.0109" y2="523.3155" gradientTransform="matrix(-1 0 0 -1 470 819.2756)">
	<stop  offset="0" style="stop-color:#4F4F71"/>
	<stop  offset="1" style="stop-color:#4F4F71;stop-opacity:0"/>
</linearGradient>
<circle class="st4" cx="566" cy="296" r="30"/>
<linearGradient id="SVGID_4_" gradientUnits="userSpaceOnUse" x1="-98.4574" y1="523.2734" x2="-73.8696" y2="523.2855" gradientTransform="matrix(-1 0 0 -1 436 783.2756)">
	<stop  offset="0" style="stop-color:#4F4F71"/>
	<stop  offset="1" style="stop-color:#4F4F71;stop-opacity:0"/>
</linearGradient>
<circle class="st5" cx="532" cy="260" r="8"/>
<linearGradient id="SVGID_5_" gradientUnits="userSpaceOnUse" x1="555.3093" y1="527.3531" x2="491.8113" y2="386.0111" gradientTransform="matrix(1 0 0 -1 0 523.2756)">
	<stop  offset="0" style="stop-color:#3F3F55"/>
	<stop  offset="1" style="stop-color:#3F3F55;stop-opacity:0"/>
</linearGradient>
<path class="st6" d="M455,30h170l-170,88V30z"/>
<path class="st7" d="M459,226.7c1.3,1,2,2.4,2,4l-1,113.4c0,1.3-0.5,2.6-1.5,3.5l-7.6,7.5c-0.9,0.9-2.2,1.4-3.5,1.4H294.1
	c-1.2,0-2.3-0.4-3.3-1.2l-9-7.7c-1.1-0.9-1.7-2.3-1.7-3.8L280,230.6c0-1.6,0.7-3,2-4c12.1-9.3,77-59,81.5-61c4.9-2.2,7.7-2.2,13.2,0
	C381.6,167.6,446.8,217.3,459,226.7z"/>
<linearGradient id="SVGID_6_" gradientUnits="userSpaceOnUse" x1="369.9515" y1="334.5936" x2="369.9515" y2="190.8906" gradientTransform="matrix(1 0 0 -1 0 523.2756)">
	<stop  offset="0.8056" style="stop-color:#FFFFFF"/>
	<stop  offset="1" style="stop-color:#FFFFFF;stop-opacity:0"/>
</linearGradient>
<path class="st8" d="M308.5,198.7c0-5.5,4.5-10,10-10h102.9c5.5,0,10,4.5,10,10v146.9H308.5V198.7z"/>
<line class="st9" x1="325" y1="244.2" x2="414.9" y2="244.2"/>
<line class="st9" x1="325" y1="252.6" x2="414.9" y2="252.6"/>
<line class="st9" x1="325" y1="261.1" x2="414.9" y2="261.1"/>
<line class="st9" x1="325" y1="276.6" x2="414.9" y2="276.6"/>
<line class="st9" x1="325" y1="285.1" x2="414.9" y2="285.1"/>
<line class="st9" x1="325" y1="293.5" x2="414.9" y2="293.5"/>
<path class="st10" d="M280,347.7V230.4c0,0,1.6,14.8,18.1,39.5c16.5,24.7,65.1,34.5,102.6,59.2c28.4,18.7,37.3,28.5,37.3,28.5H289.3
	C289.3,357.6,280,357.6,280,347.7z"/>
<linearGradient id="SVGID_7_" gradientUnits="userSpaceOnUse" x1="382.8174" y1="173.4989" x2="433.9654" y2="356.0198" gradientTransform="matrix(1 0 0 -1 0 523.2756)">
	<stop  offset="0.1262" style="stop-color:#12122F"/>
	<stop  offset="1" style="stop-color:#12122F;stop-opacity:0.4"/>
</linearGradient>
<path class="st11" d="M461,230.4v117.4c0,9.8-9.3,9.8-9.3,9.8H302.8c-0.2,0-0.3,0-0.3,0h0.3c2.6,0,20.8-1,37.5-20.8
	c18.1-21.3,29.1-61.2,58.7-79.7C428.6,238.6,461,230.4,461,230.4z"/>
<rect x="357.9" y="207.9" class="st12" width="24.1" height="25.2"/>
<path class="st3" d="M261.5,132.6c-2.2,0-4.2-0.3-6.2-1c-1.9-0.7-3.7-1.8-5.1-3.2c-1.5-1.5-2.6-3.3-3.5-5.4
	c-0.9-2.2-1.3-4.7-1.3-7.6c0-2.8,0.4-5.4,1.4-7.5c0.9-2.2,2.1-4.1,3.6-5.6c1.5-1.5,3.3-2.7,5.2-3.5c2-0.8,4-1.2,6.2-1.2
	c2.3,0,4.3,0.5,6,1.4c1.8,0.9,3.3,1.9,4.5,3.1l-4.7,5.7c-0.8-0.7-1.7-1.3-2.6-1.8c-0.9-0.5-1.9-0.7-3-0.7c-1,0-2,0.2-2.9,0.7
	c-0.9,0.5-1.6,1.1-2.3,1.9c-0.7,0.8-1.2,1.9-1.6,3.1c-0.4,1.2-0.6,2.6-0.6,4.1c0,3.2,0.7,5.6,2,7.3c1.4,1.7,3.1,2.5,5.3,2.5
	c1.3,0,2.5-0.3,3.5-0.8c1-0.6,1.9-1.3,2.7-2.1l4.7,5.6c-1.5,1.7-3.1,2.9-5,3.7C265.7,132.2,263.7,132.6,261.5,132.6z M278.3,132
	V98.2h27.4V132h-8.9v-26.3h-9.5V132H278.3z M322.9,115.6l-0.6,2.3h6.2l-0.6-2.3c-0.4-1.6-0.8-3.4-1.2-5.3c-0.4-1.9-0.8-3.7-1.2-5.4
	h-0.2c-0.4,1.7-0.8,3.6-1.2,5.5C323.8,112.2,323.4,113.9,322.9,115.6z M309.9,132l10.3-33.8h10.8l10.3,33.8h-9.5l-1.7-7.2h-9.5
	l-1.7,7.2H309.9z M359.8,132.6c-2.2,0-4.2-0.3-6.2-1c-1.9-0.7-3.7-1.8-5.1-3.2c-1.5-1.5-2.6-3.3-3.5-5.4c-0.9-2.2-1.3-4.7-1.3-7.6
	c0-2.8,0.4-5.4,1.4-7.5c0.9-2.2,2.1-4.1,3.6-5.6c1.5-1.5,3.3-2.7,5.2-3.5c2-0.8,4-1.2,6.2-1.2c2.3,0,4.3,0.5,6,1.4
	c1.8,0.9,3.3,1.9,4.5,3.1l-4.7,5.7c-0.8-0.7-1.7-1.3-2.6-1.8c-0.9-0.5-1.9-0.7-3-0.7c-1,0-2,0.2-2.9,0.7c-0.9,0.5-1.6,1.1-2.3,1.9
	c-0.7,0.8-1.2,1.9-1.6,3.1c-0.4,1.2-0.6,2.6-0.6,4.1c0,3.2,0.7,5.6,2,7.3c1.4,1.7,3.1,2.5,5.3,2.5c1.3,0,2.5-0.3,3.5-0.8
	c1-0.6,1.9-1.3,2.7-2.1l4.7,5.6c-1.5,1.7-3.1,2.9-5,3.7C364,132.2,362,132.6,359.8,132.6z M376.6,132V98.2h8.8v9.8
	c0,1-0.1,2.1-0.2,3.3c-0.1,1.1-0.2,2.2-0.3,3.4c-0.1,1.1-0.2,2.2-0.4,3.3c-0.1,1.1-0.3,2.1-0.4,3h0.2l3.2-7.6l7.5-15.1h9.5V132h-8.8
	v-9.8c0-2.1,0.1-4.3,0.4-6.6c0.3-2.3,0.5-4.4,0.7-6.3h-0.2l-3.2,7.5l-7.5,15.1H376.6z M413.2,132V98.2h23.9v7.5h-15v5.3h4
	c1.8,0,3.4,0.2,5,0.5c1.6,0.3,3,0.9,4.2,1.7c1.2,0.8,2.2,1.8,2.9,3.1c0.7,1.3,1.1,2.9,1.1,4.8c0,2-0.3,3.7-1,5.1
	c-0.7,1.4-1.6,2.5-2.9,3.4c-1.2,0.9-2.6,1.5-4.2,1.9c-1.6,0.4-3.2,0.6-4.9,0.6H413.2z M422.1,125.1h3.3c3.4,0,5.1-1.3,5.1-4
	c0-1.4-0.4-2.3-1.3-2.8c-0.9-0.6-2.1-0.8-3.8-0.8h-3.3V125.1z M460.1,132.6c-2.4,0-4.5-0.4-6.4-1.2c-1.9-0.8-3.6-1.9-4.9-3.4
	c-1.4-1.5-2.4-3.4-3.2-5.6c-0.8-2.2-1.1-4.7-1.1-7.5s0.4-5.2,1.1-7.4c0.8-2.2,1.8-4,3.2-5.5c1.4-1.5,3-2.6,4.9-3.4
	c1.9-0.8,4.1-1.1,6.4-1.1c2.3,0,4.5,0.4,6.4,1.1c1.9,0.8,3.6,1.9,4.9,3.4c1.4,1.5,2.5,3.3,3.2,5.5c0.8,2.1,1.1,4.6,1.1,7.4
	s-0.4,5.3-1.1,7.5c-0.8,2.2-1.8,4-3.2,5.6c-1.4,1.5-3,2.6-4.9,3.4C464.6,132.2,462.5,132.6,460.1,132.6z M460.1,124.9
	c2,0,3.6-0.9,4.8-2.7c1.2-1.8,1.8-4.2,1.8-7.3s-0.6-5.5-1.8-7.1c-1.1-1.7-2.7-2.5-4.8-2.5c-2,0-3.7,0.8-4.8,2.5
	c-1.1,1.7-1.7,4-1.7,7.1s0.6,5.5,1.7,7.3C456.5,124,458.1,124.9,460.1,124.9z M485.6,119.3l-1.2-14.5l-0.3-7.7h8.9l-0.3,7.7
	l-1.2,14.5H485.6z M488.5,132.6c-1.5,0-2.8-0.5-3.7-1.6c-1-1-1.5-2.3-1.5-3.8c0-1.5,0.5-2.8,1.5-3.8c1-1,2.2-1.6,3.7-1.6
	c1.5,0,2.8,0.5,3.7,1.6c1,1,1.5,2.3,1.5,3.8c0,1.5-0.5,2.8-1.5,3.8C491.3,132.1,490.1,132.6,488.5,132.6z"/>
<path d="M275.1,396v-15.7h4.7c0.8,0,1.5,0.1,2.2,0.2c0.7,0.1,1.2,0.4,1.7,0.7c0.5,0.3,0.8,0.7,1.1,1.2c0.3,0.5,0.4,1.1,0.4,1.8
	c0,0.8-0.2,1.5-0.6,2.1c-0.4,0.6-1,1.1-1.7,1.3v0.1c1,0.2,1.7,0.6,2.3,1.2s0.9,1.5,0.9,2.6c0,0.8-0.1,1.4-0.4,2
	c-0.3,0.6-0.7,1.1-1.2,1.4c-0.5,0.4-1.2,0.7-1.9,0.9c-0.7,0.2-1.5,0.3-2.4,0.3H275.1z M277.1,387h2.3c1.3,0,2.3-0.2,2.9-0.7
	c0.6-0.5,0.9-1.1,0.9-1.9c0-0.9-0.3-1.6-0.9-1.9c-0.6-0.4-1.5-0.6-2.8-0.6h-2.4V387z M277.1,394.4h2.7c1.4,0,2.4-0.2,3.2-0.7
	c0.8-0.5,1.1-1.3,1.1-2.4c0-1-0.4-1.7-1.1-2.1c-0.7-0.5-1.8-0.7-3.2-0.7h-2.7V394.4z M296.4,396v-10.1h-3.9v-1.6h9.8v1.6h-3.9V396
	H296.4z M309.3,396.3c-0.8,0-1.5-0.1-2.2-0.4c-0.7-0.3-1.3-0.7-1.8-1.2c-0.5-0.5-0.9-1.2-1.2-1.9c-0.3-0.8-0.4-1.6-0.4-2.6
	c0-1,0.1-1.8,0.4-2.6c0.3-0.8,0.7-1.4,1.2-1.9c0.5-0.5,1.1-0.9,1.7-1.2c0.6-0.3,1.3-0.4,1.9-0.4c0.7,0,1.4,0.1,2,0.4
	c0.6,0.3,1.1,0.6,1.5,1.1c0.4,0.5,0.7,1.1,0.9,1.7c0.2,0.7,0.3,1.4,0.3,2.3c0,0.2,0,0.4,0,0.6c0,0.2,0,0.4,0,0.5h-7.9
	c0.1,1.2,0.5,2.2,1.2,3c0.7,0.7,1.6,1.1,2.7,1.1c0.6,0,1.1-0.1,1.5-0.2c0.5-0.2,0.9-0.4,1.4-0.7l0.7,1.3c-0.5,0.3-1.1,0.6-1.7,0.8
	C310.8,396.2,310.1,396.3,309.3,396.3z M305.6,389.2h6.2c0-1.2-0.3-2.1-0.8-2.7c-0.5-0.6-1.2-0.9-2.1-0.9c-0.4,0-0.8,0.1-1.2,0.2
	c-0.4,0.2-0.7,0.4-1,0.7c-0.3,0.3-0.6,0.7-0.8,1.1C305.8,388.1,305.6,388.7,305.6,389.2z M322.8,396v-4.7c-0.2,0-0.4,0.1-0.6,0.1
	c-0.2,0-0.3,0-0.5,0.1c-0.2,0-0.3,0-0.5,0c-0.2,0-0.4,0-0.7,0c-1.5,0-2.6-0.3-3.5-0.9c-0.8-0.6-1.2-1.7-1.2-3.1v-3.2h2v3.2
	c0,0.9,0.2,1.5,0.7,1.9c0.5,0.4,1.3,0.6,2.4,0.6c0.4,0,0.7,0,1,0c0.3,0,0.6-0.1,0.9-0.2v-5.4h2V396H322.8z M333.4,396.3
	c-0.8,0-1.5-0.1-2.2-0.4c-0.7-0.3-1.3-0.7-1.8-1.2c-0.5-0.5-0.9-1.2-1.2-1.9c-0.3-0.8-0.4-1.6-0.4-2.6c0-1,0.1-1.8,0.4-2.6
	c0.3-0.8,0.7-1.4,1.2-1.9c0.5-0.5,1.1-0.9,1.7-1.2c0.6-0.3,1.3-0.4,1.9-0.4c0.7,0,1.4,0.1,2,0.4c0.6,0.3,1.1,0.6,1.5,1.1
	c0.4,0.5,0.7,1.1,0.9,1.7s0.3,1.4,0.3,2.3c0,0.2,0,0.4,0,0.6c0,0.2,0,0.4,0,0.5h-7.9c0.1,1.2,0.5,2.2,1.2,3c0.7,0.7,1.6,1.1,2.7,1.1
	c0.6,0,1.1-0.1,1.5-0.2c0.5-0.2,0.9-0.4,1.4-0.7l0.7,1.3c-0.5,0.3-1.1,0.6-1.7,0.8C335,396.2,334.2,396.3,333.4,396.3z M329.8,389.2
	h6.2c0-1.2-0.3-2.1-0.8-2.7c-0.5-0.6-1.2-0.9-2.1-0.9c-0.4,0-0.8,0.1-1.2,0.2c-0.4,0.2-0.7,0.4-1,0.7c-0.3,0.3-0.6,0.7-0.8,1.1
	C330,388.1,329.8,388.7,329.8,389.2z M340.6,396v-11.7h2v4.7h5.6v-4.7h2V396h-2v-5.2h-5.6v5.2H340.6z M354.1,396v-11.7h1.9v4.8
	c0,0.6,0,1.3-0.1,2.1c0,0.7-0.1,1.5-0.1,2.2h0.1c0.2-0.4,0.5-0.8,0.8-1.2c0.3-0.5,0.6-0.9,0.8-1.2l4.4-6.6h1.8V396h-1.9v-4.8
	c0-0.6,0-1.3,0-2c0-0.8,0.1-1.5,0.1-2.3h-0.1c-0.2,0.4-0.5,0.8-0.8,1.3c-0.3,0.5-0.5,0.9-0.7,1.2l-4.4,6.7H354.1z M372.4,396.3
	c-0.8,0-1.5-0.1-2.2-0.4c-0.7-0.3-1.3-0.7-1.8-1.2c-0.5-0.5-0.9-1.2-1.2-1.9c-0.3-0.8-0.4-1.6-0.4-2.6c0-1,0.1-1.8,0.4-2.6
	c0.3-0.8,0.7-1.4,1.2-1.9c0.5-0.5,1.1-0.9,1.7-1.2c0.6-0.3,1.3-0.4,1.9-0.4c0.7,0,1.4,0.1,2,0.4c0.6,0.3,1.1,0.6,1.5,1.1
	c0.4,0.5,0.7,1.1,0.9,1.7s0.3,1.4,0.3,2.3c0,0.2,0,0.4,0,0.6c0,0.2,0,0.4,0,0.5h-7.9c0.1,1.2,0.5,2.2,1.2,3c0.7,0.7,1.6,1.1,2.7,1.1
	c0.6,0,1.1-0.1,1.5-0.2c0.5-0.2,0.9-0.4,1.4-0.7l0.7,1.3c-0.5,0.3-1.1,0.6-1.7,0.8C373.9,396.2,373.2,396.3,372.4,396.3z
	 M368.7,389.2h6.2c0-1.2-0.3-2.1-0.8-2.7c-0.5-0.6-1.2-0.9-2.1-0.9c-0.4,0-0.8,0.1-1.2,0.2c-0.4,0.2-0.7,0.4-1,0.7
	c-0.3,0.3-0.6,0.7-0.8,1.1C368.9,388.1,368.8,388.7,368.7,389.2z M383.4,396v-1.2c1.2-1.2,2.2-2.2,3.1-3.1c0.9-0.9,1.6-1.8,2.3-2.6
	c0.6-0.8,1.1-1.5,1.4-2.2c0.3-0.7,0.5-1.3,0.5-1.9c0-0.9-0.2-1.6-0.7-2.2c-0.5-0.6-1.2-0.8-2.2-0.8c-0.6,0-1.2,0.2-1.8,0.6
	c-0.5,0.4-1,0.8-1.5,1.3l-1.1-1.1c0.6-0.7,1.3-1.3,2-1.7c0.7-0.4,1.6-0.6,2.6-0.6c1.4,0,2.5,0.4,3.4,1.2c0.8,0.8,1.2,1.9,1.2,3.3
	c0,0.7-0.2,1.4-0.5,2.2c-0.3,0.7-0.7,1.5-1.3,2.3c-0.5,0.8-1.2,1.6-2,2.4c-0.8,0.8-1.6,1.7-2.5,2.7c0.4,0,0.8-0.1,1.3-0.1
	c0.4,0,0.9,0,1.3,0h4.4v1.7H383.4z M401.6,396v-4.2h-6.9v-1.3l6.6-9.8h2.2v9.5h2.1v1.6h-2.1v4.2H401.6z M396.8,390.2h4.8v-4.4
	c0-0.4,0-0.9,0-1.5c0-0.6,0.1-1.1,0.1-1.5h-0.1c-0.2,0.4-0.4,0.7-0.6,1.1s-0.4,0.7-0.6,1.1L396.8,390.2z M419.4,396v-4.7
	c-0.2,0-0.4,0.1-0.6,0.1c-0.2,0-0.3,0-0.5,0.1c-0.2,0-0.3,0-0.5,0c-0.2,0-0.4,0-0.7,0c-1.5,0-2.6-0.3-3.5-0.9
	c-0.8-0.6-1.2-1.7-1.2-3.1v-3.2h2v3.2c0,0.9,0.2,1.5,0.7,1.9c0.5,0.4,1.3,0.6,2.4,0.6c0.4,0,0.7,0,1,0c0.3,0,0.6-0.1,0.9-0.2v-5.4h2
	V396H419.4z M428,396.3c-1,0-1.8-0.3-2.4-0.9c-0.6-0.6-1-1.4-1-2.4c0-1.3,0.6-2.3,1.7-2.9c1.1-0.7,3-1.2,5.4-1.4
	c0-0.4,0-0.7-0.1-1.1c-0.1-0.4-0.2-0.7-0.4-0.9s-0.4-0.5-0.7-0.6c-0.3-0.2-0.7-0.3-1.2-0.3c-0.7,0-1.3,0.1-1.9,0.4
	c-0.6,0.3-1.1,0.5-1.6,0.9l-0.8-1.4c0.5-0.4,1.2-0.7,2-1c0.8-0.3,1.6-0.5,2.6-0.5c1.4,0,2.5,0.4,3.1,1.3c0.6,0.9,1,2,1,3.5v7.2h-1.6
	l-0.2-1.4h-0.1c-0.6,0.5-1.2,0.9-1.8,1.2C429.4,396.1,428.7,396.3,428,396.3z M428.6,394.7c0.6,0,1.1-0.1,1.6-0.4
	c0.5-0.3,1-0.7,1.6-1.2v-3.2c-1,0.1-1.8,0.3-2.5,0.5c-0.7,0.2-1.2,0.4-1.6,0.6c-0.4,0.2-0.7,0.5-0.9,0.8c-0.2,0.3-0.3,0.6-0.3,1
	c0,0.7,0.2,1.2,0.6,1.4S428,394.7,428.6,394.7z M442,396.3c-0.8,0-1.5-0.1-2.2-0.4s-1.3-0.7-1.8-1.2c-0.5-0.5-0.9-1.2-1.2-1.9
	c-0.3-0.8-0.4-1.6-0.4-2.6c0-1,0.2-1.8,0.5-2.6c0.3-0.8,0.7-1.4,1.2-1.9c0.5-0.5,1.1-0.9,1.8-1.2c0.7-0.3,1.4-0.4,2.2-0.4
	c0.8,0,1.4,0.1,2,0.4s1,0.6,1.4,1l-1,1.3c-0.3-0.3-0.7-0.6-1.1-0.7c-0.4-0.2-0.8-0.3-1.2-0.3c-0.5,0-1,0.1-1.5,0.3
	c-0.4,0.2-0.8,0.5-1.2,0.9s-0.6,0.9-0.8,1.4c-0.2,0.5-0.3,1.2-0.3,1.8c0,0.7,0.1,1.3,0.3,1.8s0.4,1,0.7,1.4c0.3,0.4,0.7,0.7,1.2,0.9
	c0.4,0.2,0.9,0.3,1.5,0.3c0.5,0,1-0.1,1.5-0.3c0.5-0.2,0.9-0.5,1.2-0.8l0.9,1.3c-0.5,0.5-1.1,0.8-1.8,1.1
	C443.4,396.2,442.7,396.3,442,396.3z M452.4,396.3c-0.7,0-1.4-0.1-2.1-0.4c-0.6-0.3-1.2-0.7-1.7-1.2c-0.5-0.5-0.9-1.2-1.2-1.9
	c-0.3-0.8-0.4-1.6-0.4-2.6c0-1,0.1-1.8,0.4-2.6c0.3-0.8,0.7-1.4,1.2-1.9c0.5-0.5,1.1-0.9,1.7-1.2c0.7-0.3,1.3-0.4,2.1-0.4
	s1.4,0.1,2,0.4c0.7,0.3,1.2,0.7,1.7,1.2c0.5,0.5,0.9,1.2,1.2,1.9c0.3,0.8,0.5,1.6,0.5,2.6c0,1-0.2,1.8-0.5,2.6
	c-0.3,0.8-0.7,1.4-1.2,1.9c-0.5,0.5-1.1,0.9-1.7,1.2C453.8,396.2,453.1,396.3,452.4,396.3z M452.4,394.7c0.5,0,1-0.1,1.4-0.3
	c0.4-0.2,0.8-0.5,1.1-0.9c0.3-0.4,0.5-0.9,0.7-1.4s0.2-1.2,0.2-1.8c0-0.7-0.1-1.3-0.2-1.8c-0.2-0.6-0.4-1-0.7-1.4
	c-0.3-0.4-0.6-0.7-1.1-0.9c-0.4-0.2-0.9-0.3-1.4-0.3s-1,0.1-1.4,0.3c-0.4,0.2-0.8,0.5-1.1,0.9c-0.3,0.4-0.5,0.9-0.7,1.4
	c-0.2,0.5-0.2,1.2-0.2,1.8c0,0.7,0.1,1.3,0.2,1.8s0.4,1,0.7,1.4c0.3,0.4,0.7,0.7,1.1,0.9C451.4,394.6,451.9,394.7,452.4,394.7z
	 M460.9,396v-11.7h4.5c0.6,0,1.2,0.1,1.8,0.2c0.5,0.1,1,0.3,1.3,0.5c0.4,0.2,0.7,0.5,0.9,0.9c0.2,0.4,0.3,0.8,0.3,1.3
	c0,0.7-0.2,1.2-0.5,1.6c-0.3,0.4-0.8,0.7-1.4,0.9v0.1c0.3,0.1,0.6,0.2,0.9,0.3c0.3,0.1,0.6,0.3,0.8,0.6s0.4,0.5,0.5,0.8
	c0.1,0.3,0.2,0.7,0.2,1.1c0,0.6-0.1,1.1-0.4,1.5c-0.2,0.4-0.5,0.8-1,1.1c-0.4,0.3-0.9,0.5-1.4,0.6c-0.6,0.1-1.2,0.2-1.8,0.2H460.9z
	 M462.8,389.2h2.2c1,0,1.7-0.2,2.1-0.5c0.4-0.3,0.6-0.8,0.6-1.3c0-0.5-0.2-1-0.6-1.3c-0.4-0.3-1.1-0.5-2-0.5h-2.4V389.2z
	 M462.8,394.6h2.5c1,0,1.7-0.2,2.1-0.5c0.5-0.4,0.7-0.9,0.7-1.5c0-0.6-0.2-1.1-0.7-1.4s-1.2-0.5-2.2-0.5h-2.4V394.6z M182.4,419
	v-11.7h2.3l2.3,5.5c0.2,0.5,0.4,1,0.5,1.4c0.2,0.5,0.4,0.9,0.5,1.4h0.1c0.2-0.5,0.4-0.9,0.5-1.4c0.2-0.5,0.4-1,0.5-1.4l2.2-5.5h2.3
	V419h-1.8v-5.2c0-0.3,0-0.6,0-0.9c0-0.4,0-0.7,0-1.1c0-0.4,0.1-0.7,0.1-1.1c0-0.4,0.1-0.7,0.1-1H192c-0.2,0.5-0.4,0.9-0.6,1.4
	c-0.2,0.5-0.4,0.9-0.5,1.3l-2.2,5.4h-1.3l-2.3-5.4c-0.2-0.4-0.4-0.9-0.6-1.3c-0.2-0.5-0.4-1-0.5-1.4h-0.1c0,0.3,0,0.6,0,1
	c0,0.4,0.1,0.7,0.1,1.1c0,0.4,0.1,0.7,0.1,1.1c0,0.3,0,0.6,0,0.9v5.2H182.4z M197.6,419v-11.7h2v4.3h1.7c0.7,0,1.3,0.1,1.9,0.2
	c0.6,0.1,1.1,0.4,1.5,0.7c0.4,0.3,0.7,0.7,1,1.1c0.2,0.4,0.3,1,0.3,1.6c0,0.7-0.1,1.2-0.3,1.7c-0.2,0.5-0.5,0.8-1,1.2
	c-0.4,0.3-0.9,0.5-1.5,0.7c-0.6,0.1-1.2,0.2-1.9,0.2H197.6z M199.5,417.4h1.4c1.9,0,2.9-0.7,2.9-2.1c0-0.7-0.2-1.3-0.7-1.6
	c-0.5-0.3-1.2-0.5-2.2-0.5h-1.4V417.4z M207.8,419v-11.7h2V419H207.8z M223.1,419.3c-0.7,0-1.4-0.1-2.1-0.4
	c-0.6-0.3-1.2-0.7-1.7-1.2c-0.5-0.5-0.9-1.2-1.2-1.9c-0.3-0.8-0.4-1.6-0.4-2.6c0-1,0.1-1.8,0.4-2.6c0.3-0.8,0.7-1.4,1.2-1.9
	c0.5-0.5,1.1-0.9,1.7-1.2c0.7-0.3,1.3-0.4,2.1-0.4s1.4,0.1,2,0.4c0.7,0.3,1.2,0.7,1.7,1.2c0.5,0.5,0.9,1.2,1.2,1.9
	c0.3,0.8,0.5,1.6,0.5,2.6c0,1-0.2,1.8-0.5,2.6c-0.3,0.8-0.7,1.4-1.2,1.9c-0.5,0.5-1.1,0.9-1.7,1.2
	C224.5,419.2,223.8,419.3,223.1,419.3z M223.1,417.7c0.5,0,1-0.1,1.4-0.3c0.4-0.2,0.8-0.5,1.1-0.9c0.3-0.4,0.5-0.9,0.7-1.4
	c0.2-0.5,0.2-1.2,0.2-1.8c0-0.7-0.1-1.3-0.2-1.8c-0.2-0.6-0.4-1-0.7-1.4c-0.3-0.4-0.6-0.7-1.1-0.9c-0.4-0.2-0.9-0.3-1.4-0.3
	s-1,0.1-1.4,0.3c-0.4,0.2-0.8,0.5-1.1,0.9c-0.3,0.4-0.5,0.9-0.7,1.4c-0.2,0.5-0.2,1.2-0.2,1.8c0,0.7,0.1,1.3,0.2,1.8s0.4,1,0.7,1.4
	c0.3,0.4,0.7,0.7,1.1,0.9C222.1,417.6,222.6,417.7,223.1,417.7z M233.7,419v-10.1h-3.9v-1.6h9.8v1.6h-3.9V419H233.7z M242.2,419
	v-11.7h9.3V419h-2v-10.1h-5.4V419H242.2z M255.5,423.9v-16.6h1.6l0.2,1.3h0.1c0.5-0.4,1.1-0.8,1.7-1.2c0.6-0.3,1.3-0.5,2-0.5
	c0.8,0,1.4,0.1,2,0.4c0.6,0.3,1.1,0.7,1.4,1.2c0.4,0.5,0.7,1.1,0.9,1.9c0.2,0.7,0.3,1.5,0.3,2.4c0,1-0.1,1.9-0.4,2.7
	c-0.3,0.8-0.6,1.4-1.1,2c-0.5,0.5-1,1-1.6,1.2c-0.6,0.3-1.2,0.4-1.9,0.4c-0.5,0-1.1-0.1-1.6-0.4c-0.5-0.2-1.1-0.6-1.6-1l0,2v3.9
	H255.5z M260.3,417.6c0.5,0,0.9-0.1,1.3-0.3c0.4-0.2,0.8-0.5,1.1-0.9c0.3-0.4,0.5-0.9,0.7-1.5c0.2-0.6,0.3-1.2,0.3-1.9
	c0-0.6-0.1-1.2-0.2-1.8c-0.1-0.5-0.3-1-0.6-1.3c-0.2-0.4-0.6-0.7-1-0.9c-0.4-0.2-0.8-0.3-1.4-0.3c-0.5,0-1,0.1-1.5,0.4
	c-0.5,0.3-1,0.7-1.6,1.2v6.1c0.5,0.4,1,0.8,1.5,1C259.5,417.5,259.9,417.6,260.3,417.6z M271.1,419.3c-1,0-1.8-0.3-2.4-0.9
	c-0.6-0.6-1-1.4-1-2.4c0-1.3,0.6-2.3,1.7-2.9c1.1-0.7,3-1.2,5.4-1.4c0-0.4,0-0.7-0.1-1.1c-0.1-0.4-0.2-0.7-0.4-0.9s-0.4-0.5-0.7-0.6
	c-0.3-0.2-0.7-0.3-1.2-0.3c-0.7,0-1.3,0.1-1.9,0.4c-0.6,0.3-1.1,0.5-1.6,0.9l-0.8-1.4c0.5-0.4,1.2-0.7,2-1c0.8-0.3,1.6-0.5,2.6-0.5
	c1.4,0,2.5,0.4,3.1,1.3c0.6,0.9,1,2,1,3.5v7.2h-1.6l-0.2-1.4H275c-0.6,0.5-1.2,0.9-1.8,1.2C272.6,419.1,271.9,419.3,271.1,419.3z
	 M271.7,417.7c0.6,0,1.1-0.1,1.6-0.4c0.5-0.3,1-0.7,1.6-1.2v-3.2c-1,0.1-1.8,0.3-2.5,0.5c-0.7,0.2-1.2,0.4-1.6,0.6
	c-0.4,0.2-0.7,0.5-0.9,0.8c-0.2,0.3-0.3,0.6-0.3,1c0,0.7,0.2,1.2,0.6,1.4C270.7,417.6,271.1,417.7,271.7,417.7z M280.5,419v-11.7
	h4.5c0.6,0,1.2,0.1,1.8,0.2c0.5,0.1,1,0.3,1.3,0.5c0.4,0.2,0.7,0.5,0.9,0.9c0.2,0.4,0.3,0.8,0.3,1.3c0,0.7-0.2,1.2-0.5,1.6
	c-0.3,0.4-0.8,0.7-1.4,0.9v0.1c0.3,0.1,0.6,0.2,0.9,0.3c0.3,0.1,0.6,0.3,0.8,0.6s0.4,0.5,0.5,0.8s0.2,0.7,0.2,1.1
	c0,0.6-0.1,1.1-0.4,1.5c-0.2,0.4-0.5,0.8-1,1.1c-0.4,0.3-0.9,0.5-1.4,0.6c-0.6,0.1-1.2,0.2-1.8,0.2H280.5z M282.5,412.2h2.2
	c1,0,1.7-0.2,2.1-0.5c0.4-0.3,0.6-0.8,0.6-1.3c0-0.5-0.2-1-0.6-1.3c-0.4-0.3-1.1-0.5-2-0.5h-2.4V412.2z M282.5,417.6h2.5
	c1,0,1.7-0.2,2.1-0.5c0.5-0.4,0.7-0.9,0.7-1.5c0-0.6-0.2-1.1-0.7-1.4s-1.2-0.5-2.2-0.5h-2.4V417.6z M292.7,419v-11.7h1.9v4.8
	c0,0.6,0,1.3-0.1,2.1c0,0.7-0.1,1.5-0.1,2.2h0.1c0.2-0.4,0.5-0.8,0.8-1.2c0.3-0.5,0.6-0.9,0.8-1.2l4.4-6.6h1.8V419h-1.9v-4.8
	c0-0.6,0-1.3,0-2c0-0.8,0.1-1.5,0.1-2.3h-0.1c-0.2,0.4-0.5,0.8-0.8,1.3c-0.3,0.5-0.5,0.9-0.7,1.2l-4.4,6.7H292.7z M306.3,419v-11.7
	h2.3l2.3,5.5c0.2,0.5,0.4,1,0.5,1.4c0.2,0.5,0.4,0.9,0.5,1.4h0.1c0.2-0.5,0.4-0.9,0.5-1.4c0.2-0.5,0.4-1,0.5-1.4l2.2-5.5h2.3V419
	h-1.8v-5.2c0-0.3,0-0.6,0-0.9c0-0.4,0-0.7,0-1.1c0-0.4,0.1-0.7,0.1-1.1c0-0.4,0.1-0.7,0.1-1h-0.1c-0.2,0.5-0.4,0.9-0.6,1.4
	c-0.2,0.5-0.4,0.9-0.5,1.3l-2.2,5.4h-1.3l-2.3-5.4c-0.2-0.4-0.4-0.9-0.6-1.3c-0.2-0.5-0.4-1-0.5-1.4h-0.1c0,0.3,0,0.6,0,1
	c0,0.4,0.1,0.7,0.1,1.1c0,0.4,0.1,0.7,0.1,1.1c0,0.3,0,0.6,0,0.9v5.2H306.3z M326.3,419v-11.7h9.3V419h-2v-10.1h-5.4V419H326.3z
	 M344.1,419.3c-0.7,0-1.4-0.1-2.1-0.4c-0.6-0.3-1.2-0.7-1.7-1.2c-0.5-0.5-0.9-1.2-1.2-1.9c-0.3-0.8-0.4-1.6-0.4-2.6
	c0-1,0.1-1.8,0.4-2.6c0.3-0.8,0.7-1.4,1.2-1.9c0.5-0.5,1.1-0.9,1.7-1.2c0.7-0.3,1.3-0.4,2.1-0.4s1.4,0.1,2,0.4
	c0.7,0.3,1.2,0.7,1.7,1.2c0.5,0.5,0.9,1.2,1.2,1.9c0.3,0.8,0.5,1.6,0.5,2.6c0,1-0.2,1.8-0.5,2.6c-0.3,0.8-0.7,1.4-1.2,1.9
	c-0.5,0.5-1.1,0.9-1.7,1.2C345.5,419.2,344.8,419.3,344.1,419.3z M344.1,417.7c0.5,0,1-0.1,1.4-0.3c0.4-0.2,0.8-0.5,1.1-0.9
	c0.3-0.4,0.5-0.9,0.7-1.4c0.2-0.5,0.2-1.2,0.2-1.8c0-0.7-0.1-1.3-0.2-1.8c-0.2-0.6-0.4-1-0.7-1.4c-0.3-0.4-0.6-0.7-1.1-0.9
	c-0.4-0.2-0.9-0.3-1.4-0.3s-1,0.1-1.4,0.3c-0.4,0.2-0.8,0.5-1.1,0.9c-0.3,0.4-0.5,0.9-0.7,1.4c-0.2,0.5-0.2,1.2-0.2,1.8
	c0,0.7,0.1,1.3,0.2,1.8s0.4,1,0.7,1.4c0.3,0.4,0.7,0.7,1.1,0.9C343.1,417.6,343.6,417.7,344.1,417.7z M353,419v4.1h-1.7l-0.2-4.5
	v-1.2h0.6c0.2-0.1,0.3-0.2,0.5-0.4c0.2-0.2,0.3-0.4,0.4-0.8s0.3-0.8,0.4-1.4c0.1-0.6,0.2-1.4,0.4-2.3l0.6-5.2h7.2v10.1h1.7v1.2
	l-0.2,4.5h-1.7V419H353z M355,412.9c-0.1,1.2-0.3,2.1-0.5,2.8c-0.2,0.7-0.4,1.3-0.7,1.7h5.4v-8.4h-3.7L355,412.9z M365.6,423.9
	v-16.6h1.6l0.2,1.3h0.1c0.5-0.4,1.1-0.8,1.7-1.2c0.6-0.3,1.3-0.5,2-0.5c0.8,0,1.4,0.1,2,0.4c0.6,0.3,1.1,0.7,1.4,1.2
	c0.4,0.5,0.7,1.1,0.9,1.9c0.2,0.7,0.3,1.5,0.3,2.4c0,1-0.1,1.9-0.4,2.7c-0.3,0.8-0.6,1.4-1.1,2c-0.5,0.5-1,1-1.6,1.2
	c-0.6,0.3-1.2,0.4-1.9,0.4c-0.5,0-1.1-0.1-1.6-0.4c-0.5-0.2-1.1-0.6-1.6-1l0,2v3.9H365.6z M370.4,417.6c0.5,0,0.9-0.1,1.3-0.3
	c0.4-0.2,0.8-0.5,1.1-0.9c0.3-0.4,0.5-0.9,0.7-1.5c0.2-0.6,0.3-1.2,0.3-1.9c0-0.6-0.1-1.2-0.2-1.8c-0.1-0.5-0.3-1-0.6-1.3
	c-0.2-0.4-0.6-0.7-1-0.9c-0.4-0.2-0.8-0.3-1.4-0.3c-0.5,0-1,0.1-1.5,0.4c-0.5,0.3-1,0.7-1.6,1.2v6.1c0.5,0.4,1,0.8,1.5,1
	C369.6,417.5,370,417.6,370.4,417.6z M383.4,419.3c-0.7,0-1.4-0.1-2.1-0.4c-0.6-0.3-1.2-0.7-1.7-1.2c-0.5-0.5-0.9-1.2-1.2-1.9
	c-0.3-0.8-0.4-1.6-0.4-2.6c0-1,0.1-1.8,0.4-2.6c0.3-0.8,0.7-1.4,1.2-1.9c0.5-0.5,1.1-0.9,1.7-1.2c0.7-0.3,1.3-0.4,2.1-0.4
	s1.4,0.1,2,0.4c0.7,0.3,1.2,0.7,1.7,1.2c0.5,0.5,0.9,1.2,1.2,1.9c0.3,0.8,0.5,1.6,0.5,2.6c0,1-0.2,1.8-0.5,2.6
	c-0.3,0.8-0.7,1.4-1.2,1.9c-0.5,0.5-1.1,0.9-1.7,1.2C384.8,419.2,384.1,419.3,383.4,419.3z M383.4,417.7c0.5,0,1-0.1,1.4-0.3
	c0.4-0.2,0.8-0.5,1.1-0.9c0.3-0.4,0.5-0.9,0.7-1.4s0.2-1.2,0.2-1.8c0-0.7-0.1-1.3-0.2-1.8c-0.2-0.6-0.4-1-0.7-1.4
	c-0.3-0.4-0.6-0.7-1.1-0.9c-0.4-0.2-0.9-0.3-1.4-0.3s-1,0.1-1.4,0.3c-0.4,0.2-0.8,0.5-1.1,0.9c-0.3,0.4-0.5,0.9-0.7,1.4
	c-0.2,0.5-0.2,1.2-0.2,1.8c0,0.7,0.1,1.3,0.2,1.8s0.4,1,0.7,1.4c0.3,0.4,0.7,0.7,1.1,0.9C382.5,417.6,382.9,417.7,383.4,417.7z
	 M396.7,419.3c-1.7,0-3.1-0.6-4.1-1.9c-1-1.3-1.4-3.1-1.4-5.5c0-2,0.2-3.6,0.5-4.8c0.4-1.2,0.8-2.1,1.5-2.8c0.6-0.7,1.4-1.2,2.3-1.5
	c0.9-0.3,1.9-0.5,3-0.7c0.3,0,0.6-0.1,0.8-0.1c0.2,0,0.4-0.1,0.6-0.1c0.2,0,0.4-0.1,0.5-0.2c0.2-0.1,0.3-0.1,0.5-0.2l0.4,1.8
	c-0.3,0.2-0.7,0.4-1.1,0.5c-0.4,0.1-0.8,0.2-1.3,0.3c-0.9,0.1-1.8,0.3-2.4,0.5c-0.7,0.2-1.2,0.4-1.7,0.8c-0.4,0.4-0.8,0.9-1.1,1.6
	c-0.3,0.7-0.4,1.6-0.5,2.8c0.5-0.6,1.1-1.1,1.8-1.4c0.7-0.3,1.4-0.5,2.2-0.5c0.7,0,1.3,0.1,1.9,0.4c0.6,0.2,1.1,0.6,1.5,1.1
	c0.4,0.5,0.7,1,1,1.7c0.2,0.7,0.4,1.4,0.4,2.3c0,0.9-0.1,1.8-0.4,2.5c-0.3,0.8-0.6,1.4-1.1,1.9c-0.5,0.5-1,0.9-1.6,1.2
	C398.1,419.2,397.4,419.3,396.7,419.3z M396.7,417.7c0.4,0,0.9-0.1,1.2-0.3c0.4-0.2,0.7-0.5,1-0.9c0.3-0.4,0.5-0.9,0.6-1.4
	c0.2-0.5,0.2-1.1,0.2-1.8c0-1.2-0.3-2.2-0.8-2.9c-0.5-0.7-1.3-1.1-2.3-1.1c-0.6,0-1.1,0.2-1.8,0.5c-0.6,0.3-1.2,0.9-1.8,1.7v0.9
	c0,1.7,0.3,3,0.9,4C394.6,417.2,395.5,417.7,396.7,417.7z M405,419v-11.7h2v4.7h5.6v-4.7h2V419h-2v-5.2h-5.6v5.2H405z M423,419.3
	c-0.7,0-1.4-0.1-2.1-0.4c-0.6-0.3-1.2-0.7-1.7-1.2c-0.5-0.5-0.9-1.2-1.2-1.9c-0.3-0.8-0.4-1.6-0.4-2.6c0-1,0.1-1.8,0.4-2.6
	c0.3-0.8,0.7-1.4,1.2-1.9c0.5-0.5,1.1-0.9,1.7-1.2c0.7-0.3,1.3-0.4,2.1-0.4s1.4,0.1,2,0.4c0.7,0.3,1.2,0.7,1.7,1.2
	c0.5,0.5,0.9,1.2,1.2,1.9c0.3,0.8,0.5,1.6,0.5,2.6c0,1-0.2,1.8-0.5,2.6c-0.3,0.8-0.7,1.4-1.2,1.9c-0.5,0.5-1.1,0.9-1.7,1.2
	C424.4,419.2,423.7,419.3,423,419.3z M423,417.7c0.5,0,1-0.1,1.4-0.3c0.4-0.2,0.8-0.5,1.1-0.9c0.3-0.4,0.5-0.9,0.7-1.4
	s0.2-1.2,0.2-1.8c0-0.7-0.1-1.3-0.2-1.8c-0.2-0.6-0.4-1-0.7-1.4c-0.3-0.4-0.6-0.7-1.1-0.9c-0.4-0.2-0.9-0.3-1.4-0.3s-1,0.1-1.4,0.3
	c-0.4,0.2-0.8,0.5-1.1,0.9c-0.3,0.4-0.5,0.9-0.7,1.4c-0.2,0.5-0.2,1.2-0.2,1.8c0,0.7,0.1,1.3,0.2,1.8s0.4,1,0.7,1.4
	c0.3,0.4,0.7,0.7,1.1,0.9C422,417.6,422.5,417.7,423,417.7z M436,419.3c-0.8,0-1.5-0.1-2.2-0.4s-1.3-0.7-1.8-1.2
	c-0.5-0.5-0.9-1.2-1.2-1.9c-0.3-0.8-0.4-1.6-0.4-2.6c0-1,0.2-1.8,0.5-2.6c0.3-0.8,0.7-1.4,1.2-1.9c0.5-0.5,1.1-0.9,1.8-1.2
	c0.7-0.3,1.4-0.4,2.2-0.4c0.8,0,1.4,0.1,2,0.4c0.5,0.3,1,0.6,1.4,1l-1,1.3c-0.3-0.3-0.7-0.6-1.1-0.7c-0.4-0.2-0.8-0.3-1.2-0.3
	c-0.5,0-1,0.1-1.5,0.3c-0.4,0.2-0.8,0.5-1.2,0.9c-0.3,0.4-0.6,0.9-0.8,1.4c-0.2,0.5-0.3,1.2-0.3,1.8c0,0.7,0.1,1.3,0.3,1.8
	c0.2,0.5,0.4,1,0.7,1.4c0.3,0.4,0.7,0.7,1.2,0.9c0.4,0.2,0.9,0.3,1.5,0.3c0.5,0,1-0.1,1.5-0.3c0.5-0.2,0.9-0.5,1.2-0.8l0.9,1.3
	c-0.5,0.5-1.1,0.8-1.8,1.1C437.4,419.2,436.7,419.3,436,419.3z M444.7,419v-10.1h-3.9v-1.6h9.8v1.6h-3.9V419H444.7z M453.2,419
	v-11.7h1.9v4.8c0,0.6,0,1.3-0.1,2.1c0,0.7-0.1,1.5-0.1,2.2h0.1c0.2-0.4,0.5-0.8,0.8-1.2c0.3-0.5,0.6-0.9,0.8-1.2l4.4-6.6h1.8V419
	h-1.9v-4.8c0-0.6,0-1.3,0-2c0-0.8,0.1-1.5,0.1-2.3H461c-0.2,0.4-0.5,0.8-0.8,1.3c-0.3,0.5-0.5,0.9-0.7,1.2L455,419H453.2z
	 M471.6,419v-11.7h2v4.7h5.6v-4.7h2V419h-2v-5.2h-5.6v5.2H471.6z M487.7,419.3c-1,0-1.8-0.3-2.4-0.9c-0.6-0.6-1-1.4-1-2.4
	c0-1.3,0.6-2.3,1.7-2.9c1.1-0.7,3-1.2,5.4-1.4c0-0.4,0-0.7-0.1-1.1c-0.1-0.4-0.2-0.7-0.4-0.9s-0.4-0.5-0.7-0.6
	c-0.3-0.2-0.7-0.3-1.2-0.3c-0.7,0-1.3,0.1-1.9,0.4c-0.6,0.3-1.1,0.5-1.6,0.9l-0.8-1.4c0.5-0.4,1.2-0.7,2-1c0.8-0.3,1.6-0.5,2.6-0.5
	c1.4,0,2.5,0.4,3.1,1.3c0.6,0.9,1,2,1,3.5v7.2h-1.6l-0.2-1.4h-0.1c-0.6,0.5-1.2,0.9-1.8,1.2C489.1,419.1,488.5,419.3,487.7,419.3z
	 M488.3,417.7c0.6,0,1.1-0.1,1.6-0.4c0.5-0.3,1-0.7,1.6-1.2v-3.2c-1,0.1-1.8,0.3-2.5,0.5c-0.7,0.2-1.2,0.4-1.6,0.6
	c-0.4,0.2-0.7,0.5-0.9,0.8c-0.2,0.3-0.3,0.6-0.3,1c0,0.7,0.2,1.2,0.6,1.4C487.2,417.6,487.7,417.7,488.3,417.7z M506.7,419.3
	c-0.8,0-1.5-0.1-2.2-0.4c-0.7-0.3-1.3-0.7-1.8-1.2c-0.5-0.5-0.9-1.2-1.2-1.9c-0.3-0.8-0.4-1.6-0.4-2.6c0-1,0.1-1.8,0.4-2.6
	c0.3-0.8,0.7-1.4,1.2-1.9c0.5-0.5,1.1-0.9,1.7-1.2c0.6-0.3,1.3-0.4,1.9-0.4c0.7,0,1.4,0.1,2,0.4c0.6,0.3,1.1,0.6,1.5,1.1
	c0.4,0.5,0.7,1.1,0.9,1.7c0.2,0.7,0.3,1.4,0.3,2.3c0,0.2,0,0.4,0,0.6c0,0.2,0,0.4,0,0.5H503c0.1,1.2,0.5,2.2,1.2,3
	c0.7,0.7,1.6,1.1,2.7,1.1c0.6,0,1.1-0.1,1.5-0.2c0.5-0.2,0.9-0.4,1.4-0.7l0.7,1.3c-0.5,0.3-1.1,0.6-1.7,0.8
	C508.2,419.2,507.5,419.3,506.7,419.3z M503,412.2h6.2c0-1.2-0.3-2.1-0.8-2.7c-0.5-0.6-1.2-0.9-2.1-0.9c-0.4,0-0.8,0.1-1.2,0.2
	c-0.4,0.2-0.7,0.4-1,0.7c-0.3,0.3-0.6,0.7-0.8,1.1C503.2,411.1,503.1,411.7,503,412.2z M513.1,413.7v-1.5h5.5v1.5H513.1z M521.5,419
	v-11.7h1.6l0.2,1.7h0.1c0.5-0.6,1.1-1,1.7-1.4c0.6-0.4,1.3-0.6,2-0.6c0.9,0,1.6,0.2,2.1,0.6c0.5,0.4,0.9,0.9,1.1,1.6
	c0.6-0.7,1.2-1.2,1.8-1.6c0.6-0.4,1.3-0.6,2-0.6c1.2,0,2.1,0.4,2.7,1.2c0.6,0.8,0.9,1.9,0.9,3.4v7.4h-2v-7.1c0-1.1-0.2-1.9-0.5-2.4
	c-0.4-0.5-0.9-0.7-1.6-0.7c-0.9,0-1.9,0.6-2.9,1.8v8.4h-2v-7.1c0-1.1-0.2-1.9-0.5-2.4c-0.4-0.5-0.9-0.7-1.7-0.7
	c-0.9,0-1.9,0.6-2.9,1.8v8.4H521.5z M544.1,419.3c-1,0-1.8-0.3-2.4-0.9c-0.6-0.6-1-1.4-1-2.4c0-1.3,0.6-2.3,1.7-2.9
	c1.1-0.7,3-1.2,5.4-1.4c0-0.4,0-0.7-0.1-1.1c-0.1-0.4-0.2-0.7-0.4-0.9c-0.2-0.3-0.4-0.5-0.7-0.6c-0.3-0.2-0.7-0.3-1.2-0.3
	c-0.7,0-1.3,0.1-1.9,0.4c-0.6,0.3-1.1,0.5-1.6,0.9l-0.8-1.4c0.5-0.4,1.2-0.7,2-1c0.8-0.3,1.6-0.5,2.6-0.5c1.4,0,2.5,0.4,3.1,1.3
	c0.6,0.9,1,2,1,3.5v7.2h-1.6l-0.2-1.4H548c-0.6,0.5-1.2,0.9-1.8,1.2C545.5,419.1,544.9,419.3,544.1,419.3z M544.7,417.7
	c0.6,0,1.1-0.1,1.6-0.4c0.5-0.3,1-0.7,1.6-1.2v-3.2c-1,0.1-1.8,0.3-2.5,0.5c-0.7,0.2-1.2,0.4-1.6,0.6c-0.4,0.2-0.7,0.5-0.9,0.8
	c-0.2,0.3-0.3,0.6-0.3,1c0,0.7,0.2,1.2,0.6,1.4S544.1,417.7,544.7,417.7z M553.5,419v-11.7h2V419H553.5z M554.5,404.9
	c-0.4,0-0.7-0.1-1-0.4c-0.3-0.2-0.4-0.5-0.4-0.9c0-0.4,0.1-0.7,0.4-0.9c0.3-0.2,0.6-0.4,1-0.4c0.4,0,0.7,0.1,1,0.4
	c0.3,0.2,0.4,0.5,0.4,0.9c0,0.4-0.1,0.7-0.4,0.9C555.2,404.8,554.9,404.9,554.5,404.9z M561.5,419.3c-0.8,0-1.3-0.2-1.6-0.7
	s-0.5-1.1-0.5-2v-14.7h2v14.9c0,0.3,0.1,0.5,0.2,0.7c0.1,0.1,0.2,0.2,0.4,0.2c0.1,0,0.1,0,0.2,0c0.1,0,0.2,0,0.3,0l0.3,1.5
	c-0.1,0.1-0.3,0.1-0.5,0.1C562,419.3,561.8,419.3,561.5,419.3z"/>
<path class="st3" d="M684,61.5l-1.4-1.5l-8.6,8.5l-8.6-8.5l-1.4,1.5l8.6,8.5l-8.6,8.5l1.4,1.5l8.6-8.5l8.6,8.5l1.4-1.5l-8.6-8.5
	L684,61.5z"/>
<linearGradient id="SVGID_8_" gradientUnits="userSpaceOnUse" x1="106.6682" y1="437.9863" x2="151.6682" y2="318.9863" gradientTransform="matrix(1 0 0 -1 0 523.2756)">
	<stop  offset="0.1586" style="stop-color:#FED300"/>
	<stop  offset="1" style="stop-color:#FED300;stop-opacity:0"/>
</linearGradient>
<path class="st13" d="M137,132l22,33.5L137,199l-22-33.5L137,132z"/>
<defs>
	<filter id="Adobe_OpacityMaskFilter" filterUnits="userSpaceOnUse" x="-39.4" y="72.6" width="216.7" height="25.9">
		<feColorMatrix  type="matrix" values="1 0 0 0 0  0 1 0 0 0  0 0 1 0 0  0 0 0 1 0"/>
	</filter>
</defs>
<mask maskUnits="userSpaceOnUse" x="-39.4" y="72.6" width="216.7" height="25.9" id="mask0_1_">
	<rect x="30" y="61" class="st14" width="185" height="58"/>
</mask>
<g class="st15">
	
		<linearGradient id="SVGID_9_" gradientUnits="userSpaceOnUse" x1="-35.5618" y1="439.0185" x2="187.4382" y2="434.0185" gradientTransform="matrix(1 0 0 -1 0 523.2756)">
		<stop  offset="6.230970e-02" style="stop-color:#FED300"/>
		<stop  offset="0.599" style="stop-color:#FED300;stop-opacity:0.7"/>
		<stop  offset="0.9505" style="stop-color:#FED300;stop-opacity:0"/>
	</linearGradient>
	<path class="st16" d="M-38,74c0,0,21.6,22.5,37.3,22.5s16.8-20,35.4-20s20.2,20,37.6,20s17.4-20,35.9-20c18.5,0,16.3,20,35.9,20
		c19.6,0,31.4-20,31.4-20"/>
</g>
<linearGradient id="SVGID_10_" gradientUnits="userSpaceOnUse" x1="723.5" y1="308.2862" x2="427.022" y2="308.2622" gradientTransform="matrix(1 0 0 -1 0 523.2756)">
	<stop  offset="6.230970e-02" style="stop-color:#FED300"/>
	<stop  offset="0.5052" style="stop-color:#FED300;stop-opacity:0.7"/>
	<stop  offset="0.874" style="stop-color:#FED300;stop-opacity:0"/>
</linearGradient>
<path class="st17" d="M439,225c0,0,11.8-20,31.4-20c19.6,0,17.4,20,35.8,20c18.5,0,18.5-20,35.9-20s19,20,37.5,20
	c18.5,0,19.6-20,35.3-20c15.7,0,21.8,20,36.7,20c15,0,15.5-20,31.4-20c16,0,19,20,30.9,20"/>
</svg>
