<svg width="36" height="36" viewBox="0 0 36 36" fill="none" xmlns="http://www.w3.org/2000/svg">
<circle r="18" transform="matrix(-1 0 0 1 18 18)" fill="white" fill-opacity="0.54"/>
<path d="M22.6435 26.6477C22.5312 26.7594 22.3978 26.848 22.251 26.9084C22.1042 26.9689 21.9468 27 21.7878 27C21.6289 27 21.4715 26.9689 21.3247 26.9084C21.1778 26.848 21.0445 26.7594 20.9322 26.6477L12.8981 18.6764C12.8085 18.5877 12.7374 18.4822 12.6888 18.3662C12.6403 18.2502 12.6154 18.1258 12.6154 18.0001C12.6154 17.8745 12.6403 17.7501 12.6888 17.6341C12.7374 17.518 12.8085 17.4126 12.8981 17.3239L20.9322 9.35252C21.4059 8.88249 22.1697 8.88249 22.6435 9.35252C23.1172 9.82255 23.1172 10.5804 22.6435 11.0504L15.6438 18.0049L22.6531 24.9595C23.1172 25.4199 23.1172 26.1873 22.6435 26.6477Z" fill="white"/>
</svg>
