<?xml version="1.0" encoding="utf-8"?>
<!-- Generator: Adobe Illustrator 23.0.3, SVG Export Plug-In . SVG Version: 6.00 Build 0)  -->
<svg version="1.1" id="Слой_1" xmlns="http://www.w3.org/2000/svg" xmlns:xlink="http://www.w3.org/1999/xlink" x="0px" y="0px"
	 viewBox="0 0 70 70" style="enable-background:new 0 0 70 70;" xml:space="preserve">
<style type="text/css">
	.st0{fill:#FED300;}
	.st1{fill:#151726;}
</style>
<g>
	<path class="st0" d="M15.4,1.7C9.2-1.9,4.1,1.1,4.1,8.3v53.4c0,7.2,5.1,10.2,11.4,6.6l46.7-26.8c6.3-3.6,6.3-9.4,0-13L15.4,1.7z"/>
</g>
<rect x="4.8" y="53.7" transform="matrix(0.7071 -0.7071 0.7071 0.7071 -34.9145 25.0246)" class="st1" width="15.8" height="1.9"/>
<rect x="4.8" y="43.6" transform="matrix(0.7071 0.7071 -0.7071 0.7071 35.267 3.9574)" class="st1" width="16.1" height="1.9"/>
<rect x="32.2" y="29.5" transform="matrix(0.7071 0.7071 -0.7071 0.7071 33.2611 -19.4208)" class="st1" width="15.8" height="1.9"/>
<polygon class="st1" points="43.9,35.7 55.1,24.5 56.8,25.5 45.2,37 "/>
<rect x="18.1" y="18.3" transform="matrix(-0.7071 0.7071 -0.7071 -0.7071 58.0561 14.4418)" class="st1" width="15.8" height="1.9"/>
<polygon class="st1" points="46,50.4 20.6,25 22,23.7 47.8,49.5 "/>
<rect x="5.5" y="17.4" transform="matrix(-0.7071 0.7071 -0.7071 -0.7071 35.8769 21.8922)" class="st1" width="15.8" height="1.9"/>
<rect x="18.6" y="51.3" transform="matrix(-0.7071 0.7071 -0.7071 -0.7071 82.1083 70.5182)" class="st1" width="15.7" height="1.9"/>
<polygon class="st1" points="31.5,48.5 4.2,21.1 4.1,18.4 32.8,47.1 "/>
<circle class="st1" cx="20.6" cy="11" r="4.9"/>
<circle class="st1" cx="20.6" cy="58.1" r="4.9"/>
<circle class="st1" cx="33.4" cy="37.1" r="4.9"/>
</svg>
