<?xml version="1.0" encoding="utf-8"?>
<svg width="156" height="26" viewBox="0 0 156 26" fill="none" xmlns="http://www.w3.org/2000/svg">
	<g clip-path="url(#clip0)">
		<path d="M45.7157 8.09248C45.2924 7.63748 44.7714 7.24748 44.0877 6.95498C43.4039 6.66248 42.6224 6.53248 41.7433 6.53248C40.4734 6.53248 39.5291 6.75998 38.943 7.24748C38.3569 7.73498 38.0639 8.38498 38.0639 9.22998C38.0639 9.65248 38.129 10.01 38.2918 10.3025C38.4546 10.595 38.6825 10.8225 39.0081 11.0175C39.3337 11.2125 39.757 11.4075 40.278 11.5375C40.799 11.7 41.3851 11.83 42.1014 11.9925C42.8829 12.155 43.5667 12.35 44.1853 12.545C44.804 12.74 45.325 13 45.7808 13.325C46.2041 13.6175 46.5623 14.0075 46.7902 14.43C47.0181 14.8525 47.1484 15.405 47.1484 16.055C47.1484 16.7375 47.0181 17.29 46.7577 17.7775C46.4972 18.265 46.139 18.6875 45.6831 19.0125C45.2273 19.3375 44.6737 19.565 44.0225 19.7275C43.3713 19.89 42.6875 19.955 41.9061 19.955C39.6593 19.955 37.7057 19.24 36.0776 17.8425L36.794 16.6725C37.0545 16.9325 37.3475 17.1925 37.7382 17.4525C38.0964 17.7125 38.4872 17.9075 38.943 18.1025C39.3989 18.2975 39.8547 18.4275 40.3757 18.525C40.8641 18.6225 41.4176 18.6875 41.9712 18.6875C43.1434 18.6875 44.0225 18.4925 44.6737 18.07C45.325 17.6475 45.6506 17.03 45.6506 16.185C45.6506 15.73 45.5529 15.3725 45.3901 15.0475C45.1947 14.755 44.9342 14.4625 44.5761 14.2675C44.2179 14.0725 43.762 13.845 43.2085 13.6825C42.655 13.52 42.0363 13.3575 41.32 13.195C40.5711 13.0325 39.8873 12.8375 39.3012 12.6425C38.7151 12.4475 38.2592 12.22 37.8359 11.9275C37.4452 11.635 37.1522 11.31 36.9568 10.8875C36.7614 10.4975 36.6637 9.97748 36.6637 9.39248C36.6637 8.70998 36.794 8.12498 37.0545 7.60498C37.315 7.08498 37.6731 6.62998 38.129 6.30498C38.5848 5.94748 39.1384 5.68748 39.757 5.52498C40.3757 5.32998 41.092 5.26498 41.8409 5.26498C42.8178 5.26498 43.6644 5.42748 44.4133 5.71998C45.1622 6.01248 45.8459 6.43498 46.4646 6.95498L45.7157 8.09248Z" fill="white"/>
		<path d="M57.5355 19.9875C56.5261 19.9875 55.6144 19.7925 54.7678 19.37C53.9212 18.9475 53.2049 18.395 52.6188 17.7125C52.0327 17.03 51.5443 16.25 51.2186 15.34C50.893 14.4625 50.7302 13.5525 50.7302 12.61C50.7302 11.635 50.893 10.725 51.2512 9.84748C51.6094 8.96998 52.0652 8.18998 52.6839 7.50748C53.3025 6.82498 54.0189 6.27248 54.8655 5.88248C55.7121 5.49248 56.5912 5.26498 57.568 5.26498C58.5774 5.26498 59.4891 5.49248 60.3357 5.91498C61.1823 6.33748 61.8987 6.88998 62.4848 7.60498C63.0709 8.28748 63.5267 9.09998 63.8523 9.97748C64.1779 10.855 64.3407 11.765 64.3407 12.675C64.3407 13.65 64.1779 14.56 63.8198 15.4375C63.4616 16.315 63.0057 17.095 62.3871 17.7775C61.7684 18.46 61.0521 18.98 60.238 19.4025C59.3915 19.7925 58.5123 19.9875 57.5355 19.9875ZM52.1629 12.6425C52.1629 13.4225 52.2932 14.2025 52.5536 14.9175C52.8141 15.6325 53.1723 16.2825 53.6607 16.8675C54.1491 17.42 54.7027 17.875 55.3539 18.2C56.0051 18.525 56.7215 18.6875 57.5355 18.6875C58.3495 18.6875 59.0984 18.525 59.7496 18.1675C60.4334 17.81 60.987 17.355 61.4428 16.77C61.8987 16.185 62.2568 15.5675 62.5173 14.82C62.7778 14.105 62.9081 13.3575 62.9081 12.61C62.9081 11.83 62.7778 11.05 62.5173 10.335C62.2568 9.61998 61.8661 8.96998 61.4102 8.41748C60.9218 7.86498 60.3683 7.40998 59.7171 7.08498C59.0659 6.75998 58.3495 6.59748 57.5355 6.59748C56.7215 6.59748 55.9726 6.75998 55.3213 7.11748C54.6375 7.47498 54.084 7.92998 53.6282 8.48248C53.1723 9.06748 52.8141 9.68498 52.5536 10.4325C52.2932 11.1475 52.1629 11.895 52.1629 12.6425Z" fill="white"/>
		<path d="M69.0945 19.89V5.39499H78.6349V6.66249H70.5272V11.9925H77.365V13.1625H70.5272V19.89H69.0945Z" fill="white"/>
		<path d="M93.4827 6.66249H88.3055V19.89H86.8728V6.66249H81.6956V5.39499H93.4827V6.66249Z" fill="white"/>
		<path d="M96.0552 12.545C96.0552 11.6675 96.218 10.8225 96.511 9.94499C96.8041 9.06749 97.2599 8.31999 97.846 7.63749C98.4321 6.95499 99.1485 6.40249 100.028 5.97999C100.874 5.55749 101.851 5.32999 102.958 5.32999C104.261 5.32999 105.368 5.62249 106.279 6.20749C107.191 6.79249 107.875 7.53999 108.298 8.48249L107.158 9.16499C106.931 8.67749 106.638 8.28749 106.312 7.96249C105.986 7.63749 105.628 7.37749 105.237 7.18249C104.847 6.98749 104.456 6.82499 104.065 6.72749C103.642 6.62999 103.251 6.59749 102.86 6.59749C101.981 6.59749 101.232 6.75999 100.549 7.11749C99.8648 7.47499 99.3113 7.92999 98.8554 8.51499C98.3996 9.09999 98.0414 9.71749 97.8135 10.4325C97.5855 11.1475 97.4553 11.8625 97.4553 12.61C97.4553 13.4225 97.5855 14.17 97.8786 14.9175C98.1716 15.665 98.5298 16.315 99.0182 16.8675C99.5066 17.42 100.06 17.875 100.744 18.2C101.395 18.525 102.112 18.6875 102.893 18.6875C103.316 18.6875 103.707 18.6225 104.163 18.525C104.586 18.4275 105.009 18.265 105.4 18.0375C105.791 17.81 106.182 17.55 106.507 17.1925C106.833 16.8675 107.126 16.445 107.354 15.99L108.526 16.6075C108.298 17.16 107.973 17.6475 107.549 18.0375C107.126 18.46 106.67 18.8175 106.149 19.0775C105.628 19.37 105.075 19.565 104.488 19.7275C103.902 19.89 103.349 19.955 102.795 19.955C101.786 19.955 100.874 19.7275 100.06 19.305C99.2136 18.8825 98.4973 18.2975 97.9112 17.615C97.3251 16.9 96.8366 16.12 96.511 15.2425C96.218 14.365 96.0552 13.455 96.0552 12.545Z" fill="white"/>
		<path d="M118.978 18.6875C119.89 18.6875 120.639 18.525 121.257 18.1675C121.876 17.81 122.332 17.355 122.723 16.8025C123.081 16.25 123.341 15.6 123.472 14.885C123.602 14.17 123.699 13.4225 123.699 12.7075V5.39499H125.132V12.7075C125.132 13.6825 125.034 14.625 124.807 15.5025C124.579 16.38 124.253 17.16 123.765 17.81C123.276 18.4925 122.658 19.0125 121.876 19.4025C121.095 19.7925 120.15 19.9875 119.043 19.9875C117.904 19.9875 116.927 19.7925 116.145 19.37C115.364 18.9475 114.745 18.395 114.257 17.7125C113.768 17.03 113.443 16.25 113.247 15.3725C113.052 14.495 112.954 13.6175 112.954 12.675V5.39499H114.354V12.7075C114.354 13.455 114.42 14.2025 114.582 14.9175C114.745 15.6325 114.973 16.2825 115.364 16.835C115.722 17.3875 116.21 17.8425 116.797 18.1675C117.318 18.525 118.066 18.6875 118.978 18.6875Z" fill="white"/>
		<path d="M141.478 16.1525C141.478 16.705 141.38 17.1925 141.152 17.6475C140.924 18.1025 140.631 18.4925 140.273 18.8175C139.915 19.1425 139.492 19.4025 138.971 19.5975C138.45 19.7925 137.961 19.8575 137.408 19.8575H130.57V5.39499H137.57C138.059 5.39499 138.547 5.49249 138.938 5.71999C139.361 5.94749 139.687 6.20749 139.98 6.56499C140.273 6.92249 140.501 7.31249 140.631 7.73499C140.794 8.18999 140.859 8.61249 140.859 9.06749C140.859 9.81499 140.664 10.465 140.306 11.0825C139.947 11.7 139.426 12.155 138.775 12.4475C139.622 12.7075 140.273 13.1625 140.761 13.8125C141.25 14.495 141.478 15.275 141.478 16.1525ZM132.003 6.62999V11.9925H136.984C137.343 11.9925 137.668 11.9275 137.961 11.765C138.254 11.6025 138.515 11.4075 138.743 11.18C138.971 10.92 139.133 10.66 139.264 10.335C139.394 10.01 139.459 9.68499 139.459 9.32749C139.459 8.96999 139.394 8.61249 139.296 8.28749C139.198 7.96249 139.003 7.66999 138.808 7.44249C138.612 7.21499 138.352 7.01999 138.059 6.85749C137.766 6.69499 137.473 6.62999 137.115 6.62999H132.003ZM140.045 15.8925C140.045 15.535 139.98 15.21 139.85 14.8525C139.719 14.5275 139.557 14.235 139.329 13.975C139.101 13.715 138.84 13.52 138.547 13.3575C138.254 13.195 137.896 13.13 137.57 13.13H132.003V18.6225H137.408C137.766 18.6225 138.124 18.5575 138.45 18.395C138.775 18.2325 139.036 18.0375 139.296 17.7775C139.524 17.5175 139.719 17.225 139.85 16.9C139.98 16.6075 140.045 16.25 140.045 15.8925Z" fill="white"/>
		<path d="M156 18.6225V19.89H146.232V5.39499H155.805V6.66249H147.664V11.895H154.763V13.0975H147.664V18.6225H156Z" fill="white"/>
		<path d="M4.2655 0.584807C1.9211 -0.780193 0 0.324807 0 3.02231V22.9773C0 25.6748 1.9211 26.7798 4.2655 25.4473L21.7182 15.4373C24.0626 14.1048 24.0626 11.8948 21.7182 10.5623L4.2655 0.584807Z" fill="#FED300"/>
		<path d="M5.09001 18.0008L0.899658 22.1833L1.40618 22.6889L5.59654 18.5064L5.09001 18.0008Z" fill="#151726"/>
		<path d="M5.68553 18.4575L1.40308 14.1831L0.896551 14.6887L5.179 18.9631L5.68553 18.4575Z" fill="#151726"/>
		<path d="M15.8249 13.1453L11.6345 8.96277L11.128 9.46835L15.3183 13.6508L15.8249 13.1453Z" fill="#151726"/>
		<path d="M14.9128 13.26L19.1132 9.06747L19.7319 9.45747L15.4338 13.7475L14.9128 13.26Z" fill="#151726"/>
		<path d="M6.37923 9.47458L10.5696 5.29208L10.0631 4.78651L5.8727 8.969L6.37923 9.47458Z" fill="#151726"/>
		<path d="M15.6944 18.785L6.18652 9.29499L6.7075 8.77499L16.3456 18.4275L15.6944 18.785Z" fill="#151726"/>
		<path d="M1.66707 9.13342L5.85742 4.95093L5.3509 4.44535L1.16054 8.62785L1.66707 9.13342Z" fill="#151726"/>
		<path d="M6.56614 21.7665L10.7104 17.63L10.2039 17.1244L6.05962 21.2609L6.56614 21.7665Z" fill="#151726"/>
		<path d="M10.2567 18.0375L0.0325611 7.83248L0 6.79248L10.7451 17.55L10.2567 18.0375Z" fill="#151726"/>
		<path d="M6.18655 5.88249C7.21158 5.88249 8.04253 5.0531 8.04253 4.02999C8.04253 3.00688 7.21158 2.17749 6.18655 2.17749C5.16152 2.17749 4.33057 3.00688 4.33057 4.02999C4.33057 5.0531 5.16152 5.88249 6.18655 5.88249Z" fill="#151726"/>
		<path d="M6.18655 23.4975C7.21158 23.4975 8.04253 22.6681 8.04253 21.645C8.04253 20.6219 7.21158 19.7925 6.18655 19.7925C5.16152 19.7925 4.33057 20.6219 4.33057 21.645C4.33057 22.6681 5.16152 23.4975 6.18655 23.4975Z" fill="#151726"/>
		<path d="M11.0056 15.6325C12.0307 15.6325 12.8616 14.8031 12.8616 13.78C12.8616 12.7569 12.0307 11.9275 11.0056 11.9275C9.98061 11.9275 9.14966 12.7569 9.14966 13.78C9.14966 14.8031 9.98061 15.6325 11.0056 15.6325Z" fill="#151726"/>
	</g>
	<defs>
		<clipPath id="clip0">
			<rect width="156" height="26" fill="white"/>
		</clipPath>
	</defs>
</svg>
