<svg xmlns="http://www.w3.org/2000/svg" viewBox="0 0 70 70"><switch><g><path fill="#3456a5" fill-rule="evenodd" d="M5.2 3.8h64.5v64.4H5.2z" clip-rule="evenodd"/><path fill="#ee1d43" fill-rule="evenodd" d="M0 1.3h64.5v64.4H0z" clip-rule="evenodd"/><path fill="#12122f" fill-rule="evenodd" d="M64.5 65.7H5.2V3.8h59.3z" clip-rule="evenodd"/><path fill="#fcfafc" d="M18.6 51.6c-.6.3-1.4.5-2.2.5-.7 0-1.3-.1-1.9-.4-.6-.2-1.1-.6-1.6-1-.4-.4-.8-1-1.1-1.6-.3-.6-.4-1.3-.4-2.1s.1-1.4.4-2.1c.3-.6.6-1.1 1.1-1.6.4-.4 1-.8 1.6-1 .6-.2 1.2-.4 1.9-.4.8 0 1.4.1 2 .4.6.3 1.1.7 1.5 1.2l1.9-1.9c-.7-.8-1.5-1.4-2.4-1.8-.9-.4-1.9-.6-3.1-.6-1.1 0-2.1.2-3 .6-.9.4-1.7.9-2.4 1.6-.7.7-1.2 1.5-1.6 2.4-.3 1.2-.5 2.2-.5 3.3 0 1.1.2 2.1.6 3 .4.9.9 1.7 1.6 2.4.7.7 1.5 1.2 2.4 1.6.9.4 1.9.6 3 .6 1.2 0 2.3-.2 3.3-.7 1-.5 1.8-1.1 2.6-2l-2-1.8c-.5.6-1 1-1.7 1.4zM33 48.7c0 .5-.1.9-.2 1.3s-.3.8-.6 1.1c-.2.3-.6.5-.9.7-.3.2-.8.3-1.3.3s-.9-.1-1.3-.3c-.4-.2-.7-.4-.9-.7-.2-.3-.4-.6-.6-1.1-.1-.4-.2-.9-.2-1.3v-8.9h-2.8v8.7c0 1 .1 1.8.4 2.6.3.8.7 1.4 1.1 1.9.5.5 1.1.9 1.8 1.2.7.3 1.5.4 2.3.4.9 0 1.7-.1 2.4-.4.7-.3 1.3-.7 1.8-1.2s.9-1.2 1.1-1.9c.3-.8.4-1.6.4-2.5v-8.7H33v8.8zm13.8-1.8v-.2c.6-.3 1-.7 1.4-1.2.4-.5.6-1.2.6-1.9 0-.5-.1-1-.3-1.5-.2-.5-.5-.9-.9-1.2-.4-.3-.9-.6-1.4-.8-.5-.2-1.1-.3-1.8-.3h-5.7v14.5h5.9c.7 0 1.3-.1 1.9-.3.6-.2 1.1-.5 1.5-.8.4-.4.8-.8 1-1.3.3-.5.4-1.1.4-1.7 0-.9-.2-1.6-.7-2.1-.6-.5-1.2-.9-1.9-1.2zm-5.5-4.6h2.8c.6 0 1.1.2 1.4.5.3.3.5.7.5 1.2s-.2.9-.5 1.2-.8.5-1.5.5h-2.8v-3.4zm4.7 9c-.4.3-.9.5-1.6.5h-3.1v-3.7h3c.7 0 1.3.2 1.7.5.4.4.6.8.6 1.3-.1.6-.3 1.1-.6 1.4zm14.9-8.9v-2.6h-9.3v14.5h9.3v-2.6h-6.5v-3.4h5.9v-2.6h-5.9v-3.4h6.5zM16.1 27c-.2.1-.4.3-.7.3-.3.1-.5.1-.8.1-.8 0-1.4-.2-1.9-.7-.5-.5-.8-1.1-1-1.8l-2.6 1c.2.7.5 1.3.8 1.8.4.5.8.9 1.2 1.3.5.4 1 .6 1.6.8.6.2 1.2.3 1.8.3.6 0 1.2-.1 1.8-.3.6-.2 1.1-.4 1.6-.8s.9-.8 1.2-1.3c.3-.5.5-1.2.5-2 0-.6-.1-1.1-.3-1.6-.2-.5-.4-.9-.8-1.2-.3-.4-.8-.7-1.2-.9-.5-.3-1-.5-1.6-.7l-.9-.3c-.8-.3-1.4-.6-1.8-.9-.4-.3-.6-.7-.6-1.1 0-.4.2-.8.6-1.1.4-.3.9-.4 1.5-.4s1.1.2 1.5.5c.4.3.6.7.7 1.1l2.4-1c-.1-.3-.3-.7-.5-1-.2-.4-.5-.7-.9-1-.4-.3-.8-.6-1.4-.8-.5-.2-1.2-.3-1.9-.3s-1.4.1-1.9.3c-.6.2-1.1.5-1.5.9-.4.4-.7.8-1 1.3-.2.5-.3 1-.3 1.6 0 .6.1 1.1.3 1.5.2.4.5.8.8 1.1.3.3.7.6 1.1.8.4.2.8.4 1.2.5l.9.3c.5.2 1 .4 1.3.5.4.2.7.4.9.5.2.2.4.4.5.6.1.2.1.5.1.7 0 .3-.1.5-.2.8-.2.3-.3.5-.5.6zm18.2-9.9c-.7-.7-1.5-1.2-2.4-1.6-.9-.4-1.9-.6-3-.6s-2.1.2-3 .6c-.9.4-1.7.9-2.4 1.6-.7.7-1.2 1.5-1.6 2.4-.4.9-.6 1.9-.6 3s.2 2 .6 3c.4.9.9 1.7 1.6 2.4.7.7 1.5 1.2 2.4 1.6.9.4 1.9.6 3 .6s2.1-.2 3-.6c.9-.4 1.7-.9 2.4-1.6.7-.7 1.2-1.5 1.6-2.4.4-.9.6-1.9.6-3s-.2-2-.6-3c-.3-.9-.9-1.7-1.6-2.4zm-.9 7.4c-.3.6-.6 1.1-1 1.6-.4.4-1 .8-1.6 1-.6.2-1.2.4-1.9.4s-1.3-.1-1.9-.4-1.1-.6-1.6-1c-.4-.4-.8-1-1-1.6-.3-.6-.4-1.3-.4-2s.1-1.4.4-2c.3-.6.6-1.1 1-1.6.4-.4 1-.8 1.6-1 .6-.2 1.2-.4 1.9-.4s1.3.1 1.9.4c.6.2 1.1.6 1.6 1 .4.4.8 1 1 1.6.3.6.4 1.3.4 2s-.2 1.4-.4 2zm8.3-.6h5.9v-2.6h-5.9v-3.5h6.5v-2.6H39v14.5h2.8v-5.8zm12 5.8h2.8V17.8h4.1v-2.6H50v2.6h3.7v11.9z"/></g></switch></svg>
