<svg width="7" height="12" viewBox="0 0 7 12" fill="none" xmlns="http://www.w3.org/2000/svg">
    <path d="M0.236476 11.7652C0.311316 11.8396 0.400223 11.8987 0.498104 11.939C0.595984 11.9793 0.700917 12 0.80689 12C0.912864 12 1.0178 11.9793 1.11568 11.939C1.21356 11.8987 1.30246 11.8396 1.3773 11.7652L6.73339 6.45093C6.79314 6.39177 6.84054 6.32149 6.87288 6.24413C6.90523 6.16677 6.92188 6.08384 6.92188 6.00008C6.92188 5.91633 6.90523 5.8334 6.87288 5.75604C6.84054 5.67868 6.79314 5.6084 6.73339 5.54924L1.3773 0.235013C1.06148 -0.0783401 0.5523 -0.0783401 0.236477 0.235013C-0.0793442 0.548368 -0.0793443 1.05357 0.236477 1.36692L4.90291 6.00328L0.230033 10.6396C-0.0793442 10.9466 -0.0793452 11.4582 0.236476 11.7652Z" fill="white"/>
</svg>
