<svg width="7" height="12" viewBox="0 0 7 12" fill="none" xmlns="http://www.w3.org/2000/svg">
    <path d="M6.6854 0.234846C6.61056 0.160403 6.52165 0.101341 6.42377 0.061042C6.32589 0.0207433 6.22096 0 6.11498 0C6.00901 0 5.90408 0.0207433 5.8062 0.061042C5.70832 0.101341 5.61941 0.160403 5.54457 0.234846L0.18849 5.54907C0.12874 5.60823 0.0813358 5.67851 0.0489921 5.75587C0.0166485 5.83323 0 5.91616 0 5.99992C0 6.08367 0.0166485 6.1666 0.0489921 6.24396C0.0813358 6.32132 0.12874 6.3916 0.18849 6.45076L5.54457 11.765C5.86039 12.0783 6.36958 12.0783 6.6854 11.765C7.00122 11.4516 7.00122 10.9464 6.6854 10.6331L2.01897 5.99672L6.69184 1.36036C7.00122 1.0534 7.00122 0.541804 6.6854 0.234846Z" fill="white"/>
</svg>
