<svg width="36" height="36" viewBox="0 0 36 36" fill="none" xmlns="http://www.w3.org/2000/svg">
<circle cx="18" cy="18" r="18" fill="white" fill-opacity="0.54"/>
<path d="M13.3565 26.6477C13.4688 26.7594 13.6022 26.848 13.749 26.9084C13.8958 26.9689 14.0532 27 14.2122 27C14.3711 27 14.5285 26.9689 14.6753 26.9084C14.8222 26.848 14.9555 26.7594 15.0678 26.6477L23.1019 18.6764C23.1915 18.5877 23.2626 18.4822 23.3112 18.3662C23.3597 18.2502 23.3846 18.1258 23.3846 18.0001C23.3846 17.8745 23.3597 17.7501 23.3112 17.6341C23.2626 17.518 23.1915 17.4126 23.1019 17.3239L15.0678 9.35252C14.5941 8.88249 13.8303 8.88249 13.3565 9.35252C12.8828 9.82255 12.8828 10.5804 13.3565 11.0504L20.3562 18.0049L13.3469 24.9595C12.8828 25.4199 12.8828 26.1873 13.3565 26.6477Z" fill="white"/>
</svg>
